<?xml version="1.0" standalone="no"?>
<!DOCTYPE svg PUBLIC "-//W3C//DTD SVG 20010904//EN"
 "http://www.w3.org/TR/2001/REC-SVG-20010904/DTD/svg10.dtd">
<svg version="1.0" xmlns="http://www.w3.org/2000/svg"
 width="225.000000pt" height="225.000000pt" viewBox="0 0 225.000000 225.000000"
 preserveAspectRatio="xMidYMid meet">

<g transform="translate(0.000000,225.000000) scale(0.100000,-0.100000)"
fill="#000000" stroke="none">
<path d="M1173 1966 c-12 -77 -51 -174 -78 -196 -13 -11 -15 -6 -16 31 0 24
-4 64 -7 89 l-7 44 -76 -114 c-42 -63 -87 -135 -100 -159 l-24 -44 -5 109 -5
109 -58 -87 c-120 -181 -196 -377 -179 -464 l4 -24 514 0 514 0 0 36 c0 53
-28 228 -49 309 l-18 70 -36 -72 c-20 -39 -40 -74 -45 -77 -4 -3 -23 37 -41
87 -55 153 -94 216 -243 390 l-33 39 -12 -76z"/>
<path d="M473 1295 c3 -27 9 -76 13 -107 l6 -58 70 0 70 0 -31 38 c-18 20 -55
69 -83 107 l-50 70 5 -50z"/>
<path d="M1711 1179 c-30 -22 -57 -42 -60 -44 -2 -3 21 -5 51 -5 53 0 56 1 61
28 3 15 9 35 12 45 10 26 -4 20 -64 -24z"/>
<path d="M630 1186 c0 -60 -33 -56 505 -56 549 0 492 -7 511 60 5 20 1 20
-505 20 l-511 0 0 -24z"/>
<path d="M504 1058 c3 -13 6 -31 6 -40 0 -16 15 -18 165 -18 133 0 165 3 165
14 0 7 9 25 21 40 l20 26 -191 0 -192 0 6 -22z"/>
<path d="M1010 1040 l20 -40 105 0 c69 0 105 4 105 11 0 6 9 24 21 40 l20 29
-146 0 -145 0 20 -40z"/>
<path d="M1421 1070 c9 -5 22 -23 29 -40 l13 -31 125 3 125 3 13 38 13 37
-167 0 c-110 -1 -161 -4 -151 -10z"/>
<path d="M530 947 c0 -25 59 -132 95 -175 45 -52 31 -55 -69 -12 -38 16 -72
27 -75 24 -3 -3 28 -38 69 -78 75 -72 167 -142 176 -133 2 2 0 16 -6 31 -5 15
-10 50 -10 77 0 60 18 72 62 39 16 -12 32 -19 35 -17 11 12 21 77 11 77 -7 0
-9 33 -6 90 l4 90 -143 0 c-113 0 -143 -3 -143 -13z"/>
<path d="M1060 956 c0 -2 9 -26 21 -53 11 -26 27 -64 35 -83 l15 -35 40 84
c21 46 39 85 39 87 0 2 -34 4 -75 4 -41 0 -75 -2 -75 -4z"/>
<path d="M1469 953 c0 -5 0 -42 1 -84 1 -57 -3 -80 -14 -92 -9 -9 -13 -23 -10
-31 8 -21 13 -20 41 6 50 47 78 -17 49 -114 -8 -29 -14 -53 -13 -55 2 -1 27
17 56 41 50 41 135 135 128 142 -1 2 -27 -3 -57 -11 -75 -20 -74 -20 -45 28
37 59 85 154 85 167 0 12 -220 14 -221 3z"/>
<path d="M1430 535 c0 -19 -4 -35 -10 -35 -5 0 -10 -9 -10 -20 0 -11 5 -20 10
-20 6 0 10 -33 10 -80 0 -79 0 -80 25 -80 25 0 25 1 25 80 0 64 3 80 15 80 8
0 15 9 15 20 0 11 -7 20 -15 20 -10 0 -15 11 -15 35 0 31 -3 35 -25 35 -22 0
-25 -4 -25 -35z"/>
<path d="M784 501 c-65 -28 -86 -126 -38 -174 37 -37 89 -45 133 -21 42 22 54
54 21 54 -11 0 -32 -7 -45 -16 -20 -13 -28 -14 -51 -2 -55 26 -41 38 45 38
l81 0 0 30 c0 63 -86 116 -146 91z m84 -53 c22 -22 13 -28 -43 -28 -30 0 -55
4 -55 8 0 17 25 32 55 32 17 0 36 -5 43 -12z"/>
<path d="M1001 496 c-32 -18 -50 -53 -51 -99 0 -49 13 -73 50 -92 37 -19 70
-19 98 1 25 17 26 15 13 -19 -13 -32 -55 -43 -88 -22 -13 9 -36 15 -51 13
l-27 -3 26 -27 c48 -49 134 -48 171 3 14 18 19 50 24 137 l6 112 -26 0 c-14 0
-26 -5 -26 -11 0 -5 -10 -3 -22 5 -27 19 -65 20 -97 2z m108 -70 c12 -26 12
-33 0 -54 -33 -58 -102 -43 -107 21 -4 50 12 69 57 65 28 -2 39 -9 50 -32z"/>
<path d="M1254 501 c-37 -16 -64 -60 -64 -105 1 -88 90 -134 168 -86 59 36 34
67 -29 35 -25 -13 -34 -14 -56 -3 -54 26 -40 38 46 38 l81 0 0 30 c0 63 -86
116 -146 91z m84 -53 c22 -22 13 -28 -43 -28 -30 0 -55 4 -55 8 0 17 25 32 55
32 17 0 36 -5 43 -12z"/>
<path d="M1568 494 c-36 -19 -48 -43 -48 -97 0 -82 76 -132 142 -94 22 13 28
13 28 2 0 -8 7 -11 20 -8 18 5 20 14 20 104 0 92 -1 99 -20 99 -11 0 -20 -5
-20 -11 0 -5 -10 -3 -22 5 -28 20 -65 20 -100 0z m108 -59 c33 -50 -15 -116
-69 -96 -68 26 -53 121 19 121 25 0 38 -7 50 -25z"/>
<path d="M523 488 c74 -189 78 -197 99 -189 13 5 33 39 59 102 21 51 39 95 39
97 0 1 -13 2 -28 2 -25 0 -30 -5 -41 -42 -30 -100 -31 -100 -55 -28 -20 57
-26 65 -51 68 -20 3 -26 0 -22 -10z"/>
</g>
</svg>
